A caregiver at a small retirement home takes one of her patients for drive to the country, but the two wind up stranded in a forest where they embark on an exhausting and enlightening two-day journey. 

Rip Specs

   General
      Complete name : Mogari no Mori.mkv
      Format : Matroska
      File size : 1.70 GiB
      Duration : 1h 37mn
   Video #1
      ID : 1
      Format : AVC
      Format/Info : Advanced Video Codec
      Format profile : High@L3.0
      Format settings, CABAC : Yes
      Format settings, ReFrames : 4 frames
      Muxing mode : Container profile=Unknown@3.0
      Codec ID : V_MPEG4/ISO/AVC
      Duration : 1h 37mn
      Bit rate : 2 002 Kbps
      Nominal bit rate : 2 050 Kbps
      Width : 720 pixels
      Height : 464 pixels
      Display aspect ratio : 16:9
      Frame rate : 23.976 fps
      Resolution : 24 bits
      Colorimetry : 4:2:0
      Scan type : Progressive
      Bits/(Pixel*Frame) : 0.250
      Stream size : 1.36 GiB (80%)
      Writing library : x264 core 120
   Audio #2
      ID : 2
      Format : AC-3
      Format/Info : Audio Coding 3
      Codec ID : A_AC3
      Duration : 1h 37mn
      Bit rate mode : Constant
      Bit rate : 448 Kbps
      Channel(s) : 6 channels
      Channel positions : Front: L C R, Surround: L R, LFE
      Sampling rate : 48.0 KHz
      Stream size : 311 MiB (18%)
      Language : Japanese
   Text #3
      ID : 3
      Format : VobSub
      Codec ID : S_VOBSUB
      Codec ID/Info : The same subtitle format used on DVDs
      Language : English
   Text #4
      ID : 4
      Format : UTF-8
      Codec ID : S_TEXT/UTF8
      Codec ID/Info : UTF-8 Plain Text
      Language : Portuguese

 
http://www.imdb.com/title/tt1016205/

My rip of the Japanese DVD


